<svg width="357" height="464" viewBox="0 0 357 464" fill="none" xmlns="http://www.w3.org/2000/svg">
<path d="M0 0H357V464H0V0Z" fill="#216BEE"/>
<mask id="mask0_39_28" style="mask-type:alpha" maskUnits="userSpaceOnUse" x="0" y="0" width="357" height="464">
<path d="M0 0H357V464H0V0Z" fill="#216BEE"/>
</mask>
<g mask="url(#mask0_39_28)">
<path d="M369.303 181.553C269.62 154.901 240.523 98.5751 234.373 70C212.894 70 192.242 135.393 209.315 188.147C222.973 230.35 320.747 241.634 367.926 242C370.955 215.623 372.332 182.363 369.303 181.553Z" fill="#458AFF"/>
<path d="M344.212 0H-6V212.936C-6 212.936 193.022 290.666 375 287.929V235.38C267.242 217.863 185.325 164.766 220.511 107.289C248.66 61.3082 314.707 16.6043 344.212 0Z" fill="#337DF8"/>
</g>
</svg>
